<svg width="48" height="48" viewBox="0 0 48 48" fill="none" xmlns="http://www.w3.org/2000/svg">
<path d="M47.9491 23.992C47.9491 27.3568 47.8814 30.7313 47.9684 34.0962C48.1134 40.0524 44.3715 44.6549 39.6046 46.7047C37.6901 47.5266 35.679 47.9617 33.6001 47.9617C27.0928 47.9713 20.5758 48.0584 14.0685 47.9327C9.1663 47.836 5.13429 45.7861 2.24323 41.7445C0.725182 39.6172 0 37.2 0 34.5797C0 27.6469 0 20.7238 0 13.7911C0 8.13467 2.75569 4.18001 7.64826 1.60803C9.77546 0.496084 12.0864 0.0222981 14.494 0.012629C20.8079 0.012629 27.1315 -0.0260474 33.4454 0.0319672C38.3476 0.0706436 42.4377 1.94645 45.4544 5.89144C47.1368 8.09599 47.9491 10.6293 47.9491 13.414C47.9491 16.9335 47.9491 20.4628 47.9491 23.992ZM3.5679 23.992C3.5679 27.5405 3.5679 31.0794 3.5679 34.628C3.5679 36.2137 3.93532 37.7028 4.7572 39.0468C6.9134 42.576 10.1719 44.2971 14.2136 44.3648C20.7015 44.4615 27.1992 44.4035 33.6968 44.3841C35.2922 44.3841 36.8393 44.0554 38.28 43.3689C42.2056 41.4931 44.4005 38.5053 44.3812 34.0188C44.3425 27.1538 44.3715 20.2887 44.3715 13.4237C44.3715 11.4802 43.8203 9.70106 42.6697 8.13467C40.4458 5.12758 37.3711 3.64821 33.6968 3.60953C27.2185 3.53218 20.7402 3.58053 14.2619 3.59019C12.8792 3.59019 11.5449 3.8706 10.2492 4.35405C6.69102 5.67872 3.38418 9.0339 3.53889 13.9748C3.65492 17.3203 3.5679 20.6562 3.5679 23.992Z" fill="white"/>
<path d="M24.0278 34.2414C17.7913 34.2414 12.7633 29.2715 12.7537 23.0832C12.744 16.9917 17.8106 12.0025 24.0085 12.0025C30.2257 11.9928 35.273 16.9724 35.2827 23.1122C35.2827 29.2425 30.2451 34.2317 24.0278 34.2414ZM24.0278 30.6638C28.2726 30.6638 31.7148 27.27 31.7051 23.0929C31.6954 18.9545 28.2532 15.5704 24.0278 15.5704C19.7831 15.5704 16.3216 18.9449 16.3216 23.1122C16.3312 27.2893 19.7831 30.6735 24.0278 30.6638Z" fill="white"/>
<path d="M36.5878 8.61816C37.8932 8.61816 38.9568 9.73011 38.9568 11.0935C38.9471 12.4568 37.8738 13.5591 36.5685 13.5494C35.2825 13.5397 34.2286 12.4375 34.2286 11.1031C34.2189 9.73978 35.2825 8.61816 36.5878 8.61816Z" fill="white"/>
</svg>
