<svg width="42" height="40" viewBox="0 0 42 40" fill="none" xmlns="http://www.w3.org/2000/svg">
<path d="M32.5955 38.2575H1.5824C1.94417 30.0513 8.67581 23.4869 16.8982 23.4869C19.4513 23.4869 21.9786 24.1323 24.2072 25.3531C24.5414 25.5362 24.9602 25.412 25.1422 25.0735C25.3242 24.736 25.2001 24.3136 24.865 24.1304C22.4347 22.7993 19.6798 22.0955 16.8977 22.0955C7.68381 22.0955 0.187256 29.6577 0.187256 38.9525C0.187256 39.3364 0.496164 39.648 0.876784 39.648H32.5946C32.9752 39.648 33.2841 39.3364 33.2841 38.9525C33.2841 38.5686 32.9766 38.2575 32.5955 38.2575Z" fill="#63778A"/>
<path d="M16.6201 20.3243C21.9216 20.3243 26.2349 15.9748 26.2349 10.6288C26.2349 5.28292 21.9216 0.933838 16.6201 0.933838C11.3199 0.933838 7.00806 5.28292 7.00806 10.6288C7.00806 15.9748 11.3194 20.3243 16.6201 20.3243ZM16.6201 2.32434C21.1613 2.32434 24.8558 6.04934 24.8558 10.6284C24.8558 15.2074 21.1613 18.9329 16.6201 18.9329C12.0802 18.9329 8.38711 15.2074 8.38711 10.6284C8.38711 6.04934 12.0802 2.32434 16.6201 2.32434Z" fill="#63778A"/>
<path d="M38.8341 27.2658C38.8277 27.2658 38.8217 27.2658 38.8148 27.2663C38.7918 27.2644 36.8506 27.295 35.9142 25.0755C35.6627 24.4792 35.5699 23.8097 35.5363 23.4472C36.1325 22.7429 36.4575 21.8582 36.4575 20.9226C36.4575 18.7749 34.725 17.0283 32.5962 17.0283C30.4674 17.0283 28.7353 18.7754 28.7353 20.9226C28.7353 21.8452 29.0516 22.7197 29.6331 23.4193C29.582 23.8714 29.4598 24.6142 29.229 25.1386C28.2568 27.3507 26.4819 27.2677 26.4116 27.2681C26.3937 27.2667 26.3757 27.2658 26.3578 27.2658C24.8877 27.2658 23.6912 28.4727 23.6912 29.9559V31.9024C23.6912 32.2863 24.0001 32.5978 24.3807 32.5978H24.5779L24.5912 35.6019C24.5931 35.9844 24.9011 36.2941 25.2808 36.2941H39.9833C40.364 36.2941 40.6729 35.9825 40.6729 35.5986V32.5978H40.8121C41.1928 32.5978 41.5017 32.2863 41.5017 31.9024V29.9559C41.5017 28.4727 40.3047 27.2658 38.8341 27.2658ZM25.0698 29.9559C25.0698 29.2451 25.6384 28.666 26.3408 28.6568C26.6915 28.6758 29.1812 28.6786 30.489 25.7028C30.939 24.6809 31.0314 23.2812 31.0351 23.2218C31.0475 23.0234 30.9749 22.8286 30.8361 22.6877C30.3699 22.2148 30.1139 21.5884 30.1139 20.9226C30.1139 19.5418 31.2272 18.4193 32.5957 18.4193C33.9642 18.4193 35.078 19.5423 35.078 20.9226C35.078 21.5949 34.8169 22.2264 34.3425 22.7007C34.2078 22.8351 34.1343 23.0197 34.1384 23.2112C34.1398 23.2631 34.1734 24.5024 34.6455 25.6198C35.9124 28.6234 38.5919 28.6494 38.8387 28.6568C39.5466 28.6596 40.1222 29.2414 40.1222 29.9559V31.2069H40.112C40.0702 31.199 40.027 31.1939 39.9829 31.1939C39.9387 31.1939 39.8955 31.199 39.8537 31.2069H25.0698V29.9559ZM39.2938 34.9031H25.9671L25.957 32.5978H39.2938V34.9031Z" fill="#63778A"/>
</svg>
