<svg width="49" height="49" viewBox="0 0 49 49" fill="none" xmlns="http://www.w3.org/2000/svg">
<path d="M24.6873 0C11.4438 0 0.669434 10.8681 0.669434 24.2273C0.669434 37.5859 11.4438 48.454 24.6873 48.454C37.9326 48.454 48.7086 37.5859 48.7086 24.2273C48.7086 10.8681 37.9326 0 24.6873 0ZM24.6873 1.73279C30.4579 1.73279 35.7233 3.9548 39.6872 7.59424L32.6912 14.6507C32.4644 11.9869 30.2454 9.88787 27.5465 9.88787H22.1614C19.3594 9.88787 17.0769 12.1497 17.0013 14.9574H11.7495C11.2748 14.9574 10.8906 15.3456 10.8906 15.8238V35.0168C10.8906 35.461 11.2233 35.8231 11.6505 35.8734L8.19743 39.3563C4.58919 35.3581 2.38622 30.0477 2.38622 24.2279C2.38737 11.8234 12.3909 1.73279 24.6873 1.73279ZM12.6091 34.1504V16.6902H30.6692L13.3593 34.1504H12.6091ZM18.7198 14.9574C18.7942 13.1051 20.3077 11.6207 22.162 11.6207H27.5471C29.4013 11.6207 30.9143 13.1057 30.9893 14.9574H18.7198ZM33.0983 16.6902H37.0994V34.1504H15.7884L33.0983 16.6902ZM24.6873 46.7212C18.7776 46.7212 13.4011 44.386 9.40686 40.5871L14.0711 35.8826H37.959C38.4337 35.8826 38.8179 35.4945 38.8179 35.0162V15.8233C38.8179 15.345 38.4337 14.9569 37.959 14.9569H34.8168L40.9086 8.81181C44.6749 12.8411 46.9907 18.2648 46.9907 24.2261C46.9907 36.6306 36.9855 46.7212 24.6873 46.7212Z" fill="#947464"/>
</svg>
