<svg width="31" height="34" viewBox="0 0 31 34" fill="none" xmlns="http://www.w3.org/2000/svg">
<path d="M26.1403 18.3131C26.1292 18.3131 26.1189 18.3131 26.107 18.3138C26.0673 18.3107 22.7162 18.363 21.0998 14.5671C20.6658 13.5474 20.5055 12.4024 20.4475 11.7823C21.4767 10.5778 22.0378 9.06486 22.0378 7.46468C22.0378 3.79173 19.047 0.804688 15.3722 0.804688C11.6973 0.804688 8.70734 3.79253 8.70734 7.46468C8.70734 9.04266 9.25328 10.5382 10.2571 11.7347C10.169 12.5079 9.95794 13.7782 9.55959 14.675C7.88128 18.4582 4.81749 18.3162 4.69608 18.317C4.66513 18.3146 4.63418 18.3131 4.60323 18.3131C2.06554 18.3131 0 20.3771 0 22.9137V26.2426C0 26.8991 0.533248 27.432 1.19029 27.432H1.53071L1.55372 32.5695C1.55689 33.2237 2.08855 33.7534 2.744 33.7534H28.1241C28.7811 33.7534 29.3144 33.2205 29.3144 32.564V27.432H29.5548C30.2119 27.432 30.7451 26.8991 30.7451 26.2426V22.9137C30.7451 20.3771 28.6788 18.3131 26.1403 18.3131ZM2.37978 22.9137C2.37978 21.6982 3.36137 20.7078 4.57387 20.6919C5.17933 20.7244 9.47706 20.7292 11.7346 15.64C12.5115 13.8923 12.671 11.4984 12.6773 11.3969C12.6988 11.0575 12.5734 10.7245 12.3337 10.4834C11.5291 9.67464 11.0871 8.60336 11.0871 7.46468C11.0871 5.10327 13.009 3.18354 15.3714 3.18354C17.7337 3.18354 19.6564 5.10407 19.6564 7.46468C19.6564 8.61446 19.2057 9.69446 18.3868 10.5057C18.1543 10.7356 18.0273 11.0512 18.0344 11.3787C18.0368 11.4675 18.0947 13.5871 18.9097 15.4981C21.0966 20.6348 25.7221 20.6792 26.1482 20.6919C27.3702 20.6967 28.3637 21.6918 28.3637 22.9137V25.0531H28.3463C28.2741 25.0397 28.1995 25.0309 28.1233 25.0309C28.0471 25.0309 27.9725 25.0397 27.9003 25.0531H2.37978V22.9137ZM26.9338 31.3745H3.92874L3.91128 27.432H26.9338V31.3745Z" fill="#63778A"/>
</svg>
