<svg width="42" height="40" viewBox="0 0 42 40" fill="none" xmlns="http://www.w3.org/2000/svg">
<path d="M32.9488 38.2556H1.93567C2.29745 30.0494 9.02908 23.4849 17.2515 23.4849C19.8046 23.4849 22.3319 24.1303 24.5605 25.3511C24.8947 25.5343 25.3134 25.41 25.4955 25.0716C25.6775 24.734 25.5534 24.3116 25.2183 24.1285C22.7879 22.7973 20.033 22.0935 17.251 22.0935C8.03708 22.0935 0.540527 29.6557 0.540527 38.9506C0.540527 39.3345 0.849436 39.6461 1.23006 39.6461H32.9479C33.3285 39.6461 33.6374 39.3345 33.6374 38.9506C33.6374 38.5667 33.3299 38.2556 32.9488 38.2556Z" fill="#947464"/>
<path d="M16.977 20.3222C22.2786 20.3222 26.5918 15.9727 26.5918 10.6268C26.5918 5.28084 22.2786 0.931763 16.977 0.931763C11.6768 0.931763 7.36499 5.28084 7.36499 10.6268C7.36499 15.9727 11.6764 20.3222 16.977 20.3222ZM16.977 2.32226C21.5182 2.32226 25.2127 6.04726 25.2127 10.6263C25.2127 15.2054 21.5182 18.9308 16.977 18.9308C12.4372 18.9308 8.74405 15.2054 8.74405 10.6263C8.74405 6.04726 12.4372 2.32226 16.977 2.32226Z" fill="#947464"/>
<path d="M39.1874 27.2639C39.181 27.2639 39.175 27.2639 39.1681 27.2643C39.1451 27.2625 37.2038 27.2931 36.2675 25.0736C36.016 24.4773 35.9232 23.8078 35.8896 23.4452C36.4858 22.7409 36.8108 21.8563 36.8108 20.9206C36.8108 18.773 35.0783 17.0264 32.9495 17.0264C30.8207 17.0264 29.0886 18.7734 29.0886 20.9206C29.0886 21.8433 29.4048 22.7177 29.9863 23.4174C29.9353 23.8694 29.813 24.6122 29.5823 25.1366C28.61 27.3487 26.8352 27.2657 26.7649 27.2662C26.7469 27.2648 26.729 27.2639 26.7111 27.2639C25.241 27.2639 24.0444 28.4707 24.0444 29.954V31.9004C24.0444 32.2843 24.3533 32.5959 24.734 32.5959H24.9312L24.9445 35.5999C24.9463 35.9824 25.2543 36.2921 25.634 36.2921H40.3366C40.7172 36.2921 41.0261 35.9806 41.0261 35.5967V32.5959H41.1654C41.546 32.5959 41.8549 32.2843 41.8549 31.9004V29.954C41.8549 28.4707 40.6579 27.2639 39.1874 27.2639ZM25.423 29.954C25.423 29.2432 25.9917 28.6641 26.6941 28.6548C27.0448 28.6738 29.5345 28.6766 30.8423 25.7009C31.2923 24.679 31.3847 23.2792 31.3884 23.2199C31.4008 23.0214 31.3281 22.8267 31.1893 22.6857C30.7232 22.2128 30.4672 21.5864 30.4672 20.9206C30.4672 19.5398 31.5805 18.4173 32.949 18.4173C34.3175 18.4173 35.4313 19.5403 35.4313 20.9206C35.4313 21.5929 35.1702 22.2244 34.6958 22.6987C34.5611 22.8332 34.4876 23.0177 34.4917 23.2092C34.4931 23.2611 34.5266 24.5005 34.9987 25.6179C36.2656 28.6214 38.9451 28.6474 39.192 28.6548C39.8999 28.6576 40.4754 29.2395 40.4754 29.954V31.2049H40.4653C40.4235 31.197 40.3803 31.1919 40.3361 31.1919C40.292 31.1919 40.2488 31.197 40.207 31.2049H25.423V29.954ZM39.6471 34.9012H26.3203L26.3102 32.5959H39.6471V34.9012Z" fill="#947464"/>
</svg>
