<svg width="47" height="44" viewBox="0 0 47 44" fill="none" xmlns="http://www.w3.org/2000/svg">
<path d="M36.7025 42.3466H1.58001C1.98972 33.2303 9.61332 25.9378 18.9252 25.9378C21.8166 25.9378 24.6788 26.6548 27.2027 28.011C27.5812 28.2145 28.0554 28.0764 28.2616 27.7004C28.4677 27.3254 28.3272 26.8562 27.9477 26.6528C25.1953 25.174 22.0753 24.3921 18.9247 24.3921C8.48987 24.3921 0 32.793 0 43.1187C0 43.5452 0.34984 43.8913 0.780894 43.8913H36.7015C37.1325 43.8913 37.4824 43.5452 37.4824 43.1187C37.4824 42.6922 37.1341 42.3466 36.7025 42.3466Z" fill="#FCFBF9"/>
<path d="M18.6098 22.4257C24.6138 22.4257 29.4986 17.5938 29.4986 11.655C29.4986 5.71618 24.6138 0.884766 18.6098 0.884766C12.6073 0.884766 7.72412 5.71618 7.72412 11.655C7.72412 17.5938 12.6068 22.4257 18.6098 22.4257ZM18.6098 2.42948C23.7527 2.42948 27.9368 6.5676 27.9368 11.6545C27.9368 16.7414 23.7527 20.88 18.6098 20.88C13.4684 20.88 9.28591 16.7414 9.28591 11.6545C9.28591 6.5676 13.4684 2.42948 18.6098 2.42948Z" fill="#FCFBF9"/>
<path d="M43.7658 30.1317C43.7585 30.1317 43.7517 30.1317 43.7439 30.1322C43.7179 30.1301 41.5194 30.1641 40.459 27.6984C40.1742 27.0361 40.069 26.2923 40.031 25.8895C40.7063 25.1071 41.0743 24.1243 41.0743 23.0849C41.0743 20.6991 39.1122 18.7588 36.7013 18.7588C34.2904 18.7588 32.3288 20.6996 32.3288 23.0849C32.3288 24.1099 32.687 25.0813 33.3456 25.8586C33.2878 26.3608 33.1493 27.1859 32.8879 27.7685C31.7869 30.2259 29.7769 30.1337 29.6972 30.1342C29.6769 30.1327 29.6566 30.1317 29.6363 30.1317C27.9714 30.1317 26.6163 31.4724 26.6163 33.1201V35.2824C26.6163 35.7089 26.9662 36.055 27.3972 36.055H27.6206L27.6357 39.3922C27.6377 39.8171 27.9865 40.1612 28.4166 40.1612H45.0673C45.4983 40.1612 45.8482 39.8151 45.8482 39.3886V36.055H46.0059C46.437 36.055 46.7868 35.7089 46.7868 35.2824V33.1201C46.7868 31.4724 45.4312 30.1317 43.7658 30.1317ZM28.1776 33.1201C28.1776 32.3305 28.8216 31.6872 29.617 31.6769C30.0143 31.698 32.8338 31.7011 34.3149 28.3953C34.8246 27.2601 34.9292 25.7051 34.9334 25.6392C34.9474 25.4187 34.8652 25.2024 34.708 25.0458C34.1801 24.5204 33.8901 23.8246 33.8901 23.0849C33.8901 21.551 35.151 20.304 36.7008 20.304C38.2506 20.304 39.512 21.5515 39.512 23.0849C39.512 23.8318 39.2163 24.5333 38.6791 25.0602C38.5265 25.2096 38.4432 25.4146 38.4479 25.6273C38.4495 25.685 38.4875 27.0618 39.0221 28.3031C40.4569 31.6398 43.4914 31.6686 43.771 31.6769C44.5727 31.68 45.2245 32.3264 45.2245 33.1201V34.5098H45.2131C45.1657 34.5011 45.1167 34.4954 45.0668 34.4954C45.0168 34.4954 44.9678 34.5011 44.9205 34.5098H28.1776V33.1201ZM44.2864 38.616H29.1938L29.1823 36.055H44.2864V38.616Z" fill="#FCFBF9"/>
</svg>
