<svg width="55" height="47" viewBox="0 0 55 47" fill="none" xmlns="http://www.w3.org/2000/svg">
<path d="M54.423 31.2748C54.3879 31.0397 54.2609 30.8284 54.0702 30.6876L34.3659 16.1017L36.432 13.3031C36.5327 13.3162 36.6334 13.3275 36.7353 13.3275C36.8557 13.3275 36.9767 13.3186 37.0976 13.3007C37.7341 13.2052 38.2948 12.8669 38.6774 12.3489L40.1899 10.3003C40.9795 9.23098 40.753 7.71708 39.6845 6.92641L32.1592 1.35594C31.0907 0.56587 29.5794 0.792628 28.7898 1.86197L27.2767 3.91114C26.741 4.63736 26.6838 5.56348 27.0294 6.33326L18.8795 17.3734C18.662 17.3459 18.4409 17.337 18.2186 17.3704C17.5822 17.4658 17.0214 17.8042 16.6388 18.3222L15.1264 20.3707C14.7438 20.8887 14.5853 21.5254 14.6806 22.1627C14.776 22.8 15.1139 23.3615 15.6311 23.7446L23.1565 29.3151C23.5754 29.6254 24.0718 29.7883 24.5837 29.7883C24.7041 29.7883 24.8251 29.7794 24.9461 29.7615C25.5825 29.666 26.1433 29.3276 26.5259 28.8097L28.0383 26.7605C28.4209 26.2425 28.5794 25.6058 28.4841 24.9691C28.4507 24.746 28.3774 24.5371 28.2874 24.3372L30.3577 21.5326L44.3513 31.8906L50.062 36.1178C50.2217 36.236 50.4083 36.2933 50.593 36.2933C50.8665 36.2933 51.1371 36.1679 51.3123 35.9305L54.2579 31.9401C54.3992 31.7486 54.4582 31.5093 54.423 31.2748ZM29.4519 19.7477C29.4513 19.7483 29.4519 19.7483 29.4519 19.7477L27.0372 23.0184L20.5046 18.1831L28.2797 7.65144L34.8122 12.4867L30.0198 18.9786L29.4519 19.7477ZM28.7153 4.97451L30.2278 2.92594C30.3499 2.76124 30.5382 2.67352 30.7283 2.67352C30.8565 2.67352 30.9864 2.7129 31.0972 2.79525L38.6226 8.36572C38.8979 8.5698 38.9569 8.96066 38.7531 9.23635L37.2406 11.2849C37.1417 11.4186 36.9969 11.5057 36.833 11.5308C36.6668 11.5558 36.5053 11.5141 36.3718 11.4156L28.8464 5.84514C28.5705 5.64046 28.5115 5.2502 28.7153 4.97451ZM26.601 25.6953L25.0879 27.7445C24.989 27.8782 24.8448 27.9653 24.6803 27.9904C24.5176 28.0154 24.3525 27.9743 24.219 27.8752L16.6937 22.3047C16.5602 22.2057 16.4732 22.0607 16.4481 21.8966C16.4237 21.7325 16.4642 21.5684 16.5632 21.4347L18.0756 19.3855C18.1978 19.2208 18.3855 19.1337 18.5762 19.1337C18.7043 19.1337 18.8342 19.1731 18.9451 19.2554L26.4705 24.8259C26.6039 24.925 26.6909 25.07 26.716 25.2341C26.7404 25.3982 26.6999 25.5623 26.601 25.6953ZM33.3034 17.5416L46.5782 27.368L44.6951 29.919L31.4202 20.0927L33.3034 17.5416ZM50.4059 34.1456L46.1325 30.9824L48.0156 28.4314L52.289 31.5946L50.4059 34.1456Z" fill="#FCFBF9"/>
<path d="M29.4263 37.2388H6.7811C6.28707 37.2388 5.88721 37.6392 5.88721 38.1339V45.8913C5.88721 46.386 6.28707 46.7864 6.7811 46.7864H29.4263C29.9204 46.7864 30.3202 46.386 30.3202 45.8913V38.1339C30.3202 37.6392 29.9204 37.2388 29.4263 37.2388ZM28.5324 44.9963H7.67499V39.029H28.5324V44.9963Z" fill="#FCFBF9"/>
<path d="M6.20725 32.6508C6.62797 32.6508 7.00221 32.3524 7.08445 31.924C7.17742 31.4388 6.85979 30.9692 6.3747 30.8767L1.06201 29.8575C0.573946 29.7608 0.108527 30.083 0.0161582 30.5682C-0.0768064 31.0533 0.240823 31.523 0.725908 31.6154L6.0386 32.6347C6.09521 32.646 6.15183 32.6508 6.20725 32.6508Z" fill="#FCFBF9"/>
<path d="M0.879493 25.5665L7.66353 29.3241C7.80059 29.3999 7.94898 29.4363 8.09558 29.4363C8.41023 29.4363 8.71594 29.2692 8.87863 28.9744C9.11759 28.5418 8.96146 27.997 8.52941 27.7577L1.74538 24.0001C1.31333 23.7602 0.769247 23.9171 0.53028 24.3497C0.291313 24.7824 0.447446 25.3272 0.879493 25.5665Z" fill="#FCFBF9"/>
<path d="M9.13116 25.5692C9.30756 25.79 9.56738 25.9046 9.829 25.9046C10.0251 25.9046 10.2223 25.8401 10.3874 25.7077C10.7723 25.3985 10.8343 24.8352 10.5256 24.4497L7.03886 20.0924C6.73017 19.7069 6.16821 19.6449 5.78265 19.954C5.39768 20.2631 5.3357 20.8264 5.64439 21.2119L9.13116 25.5692Z" fill="#FCFBF9"/>
</svg>
