<svg width="43" height="40" viewBox="0 0 43 40" fill="none" xmlns="http://www.w3.org/2000/svg">
<path d="M42.8453 18.2022L35.8668 3.79496C35.8194 3.69375 35.741 3.6039 35.6571 3.53479C35.5232 3.42075 35.3527 3.35312 35.1603 3.35312H24.8177C24.4736 1.94023 23.1731 0.884766 21.6217 0.884766C20.0702 0.884766 18.7692 1.94023 18.4256 3.35312H8.05404C7.72318 3.35312 7.44425 3.55799 7.33837 3.84334C7.25439 3.91245 7.18058 3.9944 7.13324 4.0956L0.154738 18.5029C0.154738 18.5029 0 18.7566 0 19.0252C0 23.6198 3.65366 27.3574 8.14413 27.3574C12.6346 27.3574 16.2883 23.6198 16.2883 19.0252C16.2883 18.7877 16.2643 18.7181 16.0719 18.3657L8.90357 4.83413H18.4251C18.7096 6.00265 19.6487 6.92335 20.8434 7.2077V34.9481H13.5752C13.1533 34.9481 12.8117 35.2793 12.8117 35.6886V39.1443C12.8117 39.5535 13.1533 39.8848 13.5752 39.8848H29.7332C30.1552 39.8848 30.4967 39.5535 30.4967 39.1443V35.6886C30.4967 35.2793 30.1552 34.9481 29.7332 34.9481H22.3709V7.21511C23.5793 6.93865 24.5317 6.01203 24.8182 4.83413H33.9285L26.9281 18.065C26.7357 18.4175 26.7117 18.4871 26.7117 18.7246C26.7117 23.3191 30.3654 27.0567 34.8559 27.0567C39.3463 27.0567 43 23.3191 43 18.7246C43 18.456 42.8453 18.2022 42.8453 18.2022ZM8.14413 25.8759C4.73734 25.8759 1.92303 23.1957 1.5652 19.7652H14.7231C14.3652 23.1962 11.5509 25.8759 8.14413 25.8759ZM14.324 18.2847L1.86144 18.4407L7.86112 6.12311L14.324 18.2847ZM28.9697 36.4286V38.4033H14.3388V36.4286H28.9697ZM23.3681 4.2358C23.2927 5.12095 22.543 5.82098 21.6217 5.82098C20.6505 5.82098 19.8605 5.04592 19.8605 4.09313C19.8605 3.14035 20.6505 2.36528 21.6217 2.36528C22.543 2.36528 23.2927 3.06531 23.3681 3.95046C23.3589 3.99687 23.3533 4.04426 23.3533 4.09313C23.3533 4.14201 23.3589 4.18989 23.3681 4.2358ZM35.1394 5.82246L41.1391 18.14L28.6765 17.984L35.1394 5.82246ZM34.8559 25.5752C31.4491 25.5752 28.6348 22.8956 28.2769 19.4646H41.4348C41.077 22.8951 38.2627 25.5752 34.8559 25.5752Z" fill="#FCFBF9"/>
</svg>
