<svg width="45" height="41" viewBox="0 0 45 41" fill="none" xmlns="http://www.w3.org/2000/svg">
<path d="M44.1452 8.89851H34.9184V8.57805C34.9184 4.33564 31.3427 0.884766 26.9474 0.884766H18.052C13.6568 0.884766 10.0816 4.33564 10.0816 8.57805V8.89851H0.854225C0.382693 8.89851 0 9.26789 0 9.72302V40.0602C0 40.5154 0.382693 40.8848 0.854225 40.8848H44.1458C44.6173 40.8848 45 40.5154 45 40.0602V9.72302C44.9994 9.26789 44.6167 8.89851 44.1452 8.89851ZM11.79 8.57805C11.79 5.24535 14.5993 2.5338 18.052 2.5338H26.9474C30.4002 2.5338 33.21 5.24535 33.21 8.57805V8.89851H11.79V8.57805ZM43.291 10.5475V20.3466H26.3545C25.883 20.3466 25.5003 20.716 25.5003 21.1711V24.3197C25.5003 26.0743 24.0214 27.5018 22.2036 27.5018C20.3858 27.5018 18.9063 26.0743 18.9063 24.3197V21.1711C18.9063 20.716 18.5236 20.3466 18.052 20.3466H1.70845V10.5475H43.291ZM1.70845 39.2363V21.9962H17.1978V24.3202C17.1978 26.9845 19.4433 29.1514 22.2036 29.1514C24.9639 29.1514 27.2088 26.9845 27.2088 24.3202V21.9962H43.291V39.2363H1.70845Z" fill="#FCFBF9"/>
</svg>
