<svg width="48" height="48" viewBox="0 0 48 48" fill="none" xmlns="http://www.w3.org/2000/svg">
<path fill-rule="evenodd" clip-rule="evenodd" d="M48 23.7757C48 36.9066 37.2548 47.5514 24 47.5514C10.7452 47.5514 0 36.9066 0 23.7757C0 10.6448 10.7452 0 24 0C37.2548 0 48 10.6448 48 23.7757ZM16.0715 21.5977C13.6673 22.6376 11.1971 23.7062 8.93825 24.9387C7.75877 25.7943 9.32638 26.3995 10.7971 26.9671C11.0309 27.0573 11.2622 27.1466 11.4797 27.2358C11.6607 27.2909 11.8447 27.349 12.0312 27.4078C13.6669 27.9241 15.4907 28.4997 17.0787 27.6338C19.6873 26.1493 22.149 24.4331 24.6089 22.7182C25.4148 22.1563 26.2205 21.5946 27.0311 21.0412C27.0691 21.0171 27.1119 20.9896 27.1588 20.9596C27.8493 20.5161 29.4024 19.5188 28.8279 20.893C27.4695 22.3647 26.0144 23.6674 24.5515 24.9774C23.5655 25.8601 22.5759 26.7462 21.6099 27.6893C20.7686 28.3665 19.8949 29.7283 20.837 30.6767C23.0069 32.1815 25.2107 33.6498 27.4132 35.1174C28.1299 35.5949 28.8466 36.0724 29.5618 36.5511C30.774 37.5098 32.6685 36.7343 32.935 35.2361C33.0535 34.5469 33.1725 33.8578 33.2915 33.1686C33.9491 29.3598 34.6069 25.5497 35.188 21.7285C35.267 21.1291 35.3565 20.5297 35.4461 19.9301C35.6632 18.4767 35.8806 17.0215 35.9485 15.5603C35.7735 14.1021 33.9887 14.4227 32.9955 14.7506C27.8903 16.6751 22.8361 18.7422 17.8019 20.8457C17.2316 21.096 16.6535 21.346 16.0715 21.5977Z" fill="white"/>
</svg>
