<svg width="33" height="44" viewBox="0 0 33 44" fill="none" xmlns="http://www.w3.org/2000/svg">
<path d="M32.6171 9.59953L24.2004 1.11008C24.1276 1.03513 24.0406 0.975585 23.9428 0.935545C23.8543 0.899099 23.7576 0.878052 23.6558 0.878052H0.932837C0.51093 0.878052 0.169434 1.22301 0.169434 1.64805V42.6652C0.169434 43.0902 0.51093 43.4352 0.932837 43.4352H32.0293C32.4512 43.4352 32.7927 43.0902 32.7927 42.6652V10.3957C32.8854 10.1262 32.8309 9.81564 32.6171 9.59953ZM24.4187 3.50835L30.3056 9.44604L24.4187 9.51688V3.50835ZM31.2649 41.8962H1.69522V2.41907H22.8914V10.2966C22.8914 10.5025 22.9733 10.6996 23.1184 10.8444C23.2634 10.9886 23.4375 11.0564 23.6639 11.0666L31.2649 10.9747V41.8962Z" fill="#63778A"/>
</svg>
