<svg width="51" height="40" viewBox="0 0 51 40" fill="none" xmlns="http://www.w3.org/2000/svg">
<path d="M30.2618 6.36859L22.0361 15.9131C21.8214 16.1623 21.7706 16.5151 21.9062 16.8155C22.0417 17.1165 22.3385 17.3095 22.6659 17.3106L27.2436 17.323L20.0956 24.423C19.7665 24.7504 19.7626 25.2844 20.0867 25.6168C20.2501 25.7845 20.4665 25.8683 20.683 25.8683C20.8949 25.8683 21.1069 25.7873 21.2703 25.6259L29.868 17.0861C30.1095 16.8459 30.1837 16.4825 30.0554 16.1657C29.9277 15.849 29.6226 15.6414 29.2829 15.6408L24.5004 15.6279L31.5257 7.47579C31.8286 7.12416 31.7918 6.59082 31.4432 6.28533C31.0946 5.97927 30.5652 6.01697 30.2618 6.36859Z" fill="#63778A"/>
<path d="M47.3479 0.815063H20.5893C18.7971 0.815063 17.3391 2.26038 17.3391 4.03652V11.7931L3.88644 11.8088C2.09428 11.8088 0.63623 13.2542 0.63623 15.0303V29.1825C0.63623 30.957 2.09428 32.4012 3.88644 32.4012H6.74732V38.1841C6.74732 38.5161 6.94031 38.8171 7.2404 38.9538C7.35029 39.0038 7.46742 39.028 7.58344 39.028C7.78424 39.028 7.98226 38.9555 8.13844 38.8159L15.3216 32.4012H30.0672C31.8588 32.4012 33.3168 30.9575 33.3168 29.1825V21.4068H35.9122L43.0954 27.8216C43.3414 28.0416 43.6939 28.0961 43.9934 27.9594C44.2935 27.8233 44.4865 27.5223 44.4865 27.1898V21.4068H47.3468C49.139 21.4068 50.597 19.9632 50.597 18.1887V4.03652C50.5976 2.26038 49.1401 0.815063 47.3479 0.815063ZM48.9242 18.1887C48.9242 19.0326 48.2169 19.719 47.3474 19.719H43.6504C43.188 19.719 42.8137 20.0965 42.8137 20.5629V25.3158L36.784 19.9311C36.6312 19.7944 36.4337 19.719 36.2296 19.719H32.4802C32.0178 19.719 31.6435 20.0965 31.6435 20.5629V29.1825C31.6435 30.0264 30.9362 30.7134 30.0672 30.7134H15.0042C14.8001 30.7134 14.6026 30.7887 14.4498 30.9255L8.42012 36.3095V31.5573C8.42012 31.0909 8.04584 30.7134 7.58344 30.7134H3.88588C3.0163 30.7134 2.30903 30.0264 2.30903 29.1825V15.0309C2.30903 14.1853 3.0163 13.4972 3.887 13.4972L17.7725 13.4809H18.1758C18.6382 13.4809 19.0125 13.1034 19.0125 12.637V4.03708C19.0125 3.19149 19.7197 2.50343 20.5893 2.50343H47.3479C48.2175 2.50343 48.9248 3.19149 48.9248 4.03708L48.9242 18.1887Z" fill="#63778A"/>
</svg>
