<svg width="36" height="46" viewBox="0 0 36 46" fill="none" xmlns="http://www.w3.org/2000/svg">
<path d="M35.8425 7.59959C35.8409 7.57145 35.8381 7.54387 35.8343 7.51629C35.8299 7.48926 35.825 7.46278 35.8184 7.43686C35.8119 7.41093 35.8042 7.385 35.7949 7.36018C35.7856 7.3348 35.7758 7.30998 35.7637 7.28571C35.7523 7.26199 35.7402 7.23937 35.7266 7.21731C35.7129 7.19414 35.6981 7.17207 35.6823 7.15056C35.6664 7.1296 35.65 7.10919 35.6325 7.08988C35.615 7.07057 35.5969 7.05182 35.5778 7.03417C35.5581 7.01596 35.5379 6.99886 35.516 6.98286C35.4952 6.96742 35.4744 6.95253 35.452 6.93929C35.429 6.92494 35.4055 6.91226 35.3815 6.90067C35.3574 6.88909 35.3333 6.87861 35.3082 6.86923C35.283 6.85985 35.2579 6.85213 35.2316 6.84551C35.2048 6.83834 35.1775 6.83282 35.1496 6.82841C35.1353 6.8262 35.1222 6.82124 35.108 6.82014C28.591 6.16259 23.4944 4.82599 18.2299 0.203332C17.8881 -0.0967545 17.369 -0.0603469 17.0726 0.28387C17.0535 0.305935 17.0393 0.330759 17.0228 0.354479C11.7288 4.96169 7.30757 6.18797 1.03672 6.81958C0.617246 6.86206 0.297852 7.21786 0.297852 7.64317V27.0225C0.297852 27.0958 0.307696 27.1687 0.326837 27.2393C3.65368 39.6145 17.071 45.4938 17.6403 45.7382C17.7431 45.7823 17.8525 45.8044 17.9613 45.8044C18.0691 45.8044 18.1779 45.7829 18.2791 45.7398C18.8555 45.496 32.4265 39.6173 35.7534 27.2398C35.7648 27.1962 35.7736 27.1521 35.778 27.1069L35.8425 26.4664C35.8452 26.4389 35.8469 26.4107 35.8469 26.3826V7.64372C35.8469 7.62772 35.8436 7.61393 35.8425 7.59959ZM34.1526 26.8697C31.2813 37.4053 20.0139 43.1069 17.963 44.0673C15.9301 43.1042 4.82625 37.4152 1.93803 26.9099V8.38732C7.88237 7.7237 12.4928 6.34959 17.718 1.92552C22.8961 6.25747 28.1048 7.70329 34.2056 8.38456V26.3396L34.1526 26.8697Z" fill="#947464"/>
<path d="M25.7274 17.8461H24.9399C24.5067 14.1816 21.3855 11.3286 17.6064 11.3286C13.8273 11.3286 10.706 14.1816 10.2734 17.8461H9.32073C8.86789 17.8461 8.50037 18.2163 8.50037 18.6736V30.8094C8.50037 31.2667 8.86789 31.6369 9.32073 31.6369H25.728C26.1808 31.6369 26.5483 31.2667 26.5483 30.8094V18.6736C26.5478 18.2163 26.1803 17.8461 25.7274 17.8461ZM17.6058 12.9835C20.4782 12.9835 22.8583 15.0973 23.2811 17.8461H11.9306C12.3539 15.0973 14.7335 12.9835 17.6058 12.9835ZM24.9071 19.501V29.982H10.1405V19.501H24.9071Z" fill="#947464"/>
</svg>
