<svg width="41" height="40" viewBox="0 0 41 40" fill="none" xmlns="http://www.w3.org/2000/svg">
<path d="M4.45703 30.3628C4.45703 32.8922 6.49728 34.9505 9.00548 34.9505C11.5137 34.9505 13.5539 32.8922 13.5539 30.3628C13.5539 27.8335 11.5137 25.7751 9.00548 25.7751C6.49728 25.7751 4.45703 27.833 4.45703 30.3628ZM12.0589 30.3628C12.0589 32.0608 10.6889 33.4426 9.00548 33.4426C7.32205 33.4426 5.95208 32.0608 5.95208 30.3628C5.95208 28.6648 7.32205 27.283 9.00548 27.283C10.6889 27.283 12.0589 28.6648 12.0589 30.3628Z" fill="#947464"/>
<path d="M40.3337 13.2288C40.0257 12.9518 39.5538 12.9784 39.2782 13.2891L28.4206 25.5553L22.8311 19.9176C22.539 19.623 22.0661 19.623 21.7741 19.9176C21.482 20.2121 21.482 20.6891 21.7741 20.9837L27.9232 27.1854C28.0638 27.3272 28.2536 27.4061 28.452 27.4061C28.459 27.4061 28.4659 27.4061 28.4729 27.4056C28.6782 27.3996 28.8726 27.3091 29.0096 27.1543L40.394 14.2929C40.6686 13.9827 40.6417 13.5057 40.3337 13.2288Z" fill="#947464"/>
<path d="M28.712 29.2865C28.2989 29.2865 27.9645 29.6243 27.9645 30.0405V37.5436H1.49505V2.35782H27.9645V18.1547C27.9645 18.5709 28.2989 18.9087 28.712 18.9087C29.1251 18.9087 29.4595 18.5709 29.4595 18.1547V1.60383C29.4595 1.18764 29.1251 0.849854 28.712 0.849854H0.747527C0.334394 0.849854 0 1.18764 0 1.60383V38.2976C0 38.7138 0.334394 39.0516 0.747527 39.0516H28.712C29.1251 39.0516 29.4595 38.7138 29.4595 38.2976V30.0405C29.4595 29.6243 29.1251 29.2865 28.712 29.2865Z" fill="#947464"/>
<path d="M19.9708 11.0152C20.3839 11.0152 20.7183 10.6774 20.7183 10.2612C20.7183 9.84499 20.3839 9.5072 19.9708 9.5072H4.95248C4.53935 9.5072 4.20496 9.84499 4.20496 10.2612C4.20496 10.6774 4.53935 11.0152 4.95248 11.0152H19.9708Z" fill="#947464"/>
<path d="M20.9071 16.9636C20.9071 16.5474 20.5727 16.2096 20.1596 16.2096H5.14523C4.7321 16.2096 4.39771 16.5474 4.39771 16.9636C4.39771 17.3798 4.7321 17.7176 5.14523 17.7176H20.1596C20.5727 17.7176 20.9071 17.3798 20.9071 16.9636Z" fill="#947464"/>
</svg>
