<svg xmlns="http://www.w3.org/2000/svg" width="36" height="44" fill="none"><path fill="#63778A" d="M17.793 25.253C8.258 25.253.5 33.079.5 42.697c0 .398.32.72.714.72h33.161a.717.717 0 0 0 .714-.72c0-9.618-7.76-17.444-17.296-17.444Zm8.085 16.725-2.469-9.144a.711.711 0 0 0-.876-.505.72.72 0 0 0-.5.883l2.366 8.766h-5.65v-8.876c0-.398-.32-.72-.714-.72a.717.717 0 0 0-.713.72v8.876H11.23l2.27-8.773a.72.72 0 0 0-.51-.878.712.712 0 0 0-.87.514l-2.365 9.137H1.943c.374-8.492 7.34-15.285 15.85-15.285s15.477 6.793 15.852 15.285h-7.767ZM8.61 18.668c.57 0 1.108-.142 1.584-.388 1.115 3.068 4.025 5.154 7.321 5.154 3.498 0 6.48-2.291 7.46-5.577a3.44 3.44 0 0 0 1.568.38c1.925 0 3.49-1.578 3.49-3.518 0-.79-.26-1.543-.73-2.154.47-.61.73-1.364.73-2.153 0-1.94-1.566-3.52-3.49-3.52-.085 0-.17.004-.254.01C25.037 3.376 21.586.964 17.682.964c-4.353 0-7.703 2.312-8.72 5.947a3.456 3.456 0 0 0-.352-.018c-1.924 0-3.49 1.579-3.49 3.52 0 .892.33 1.729.91 2.368-.58.64-.91 1.476-.91 2.369 0 1.94 1.565 3.518 3.49 3.518Zm8.905 3.327c-2.868 0-5.378-1.933-6.14-4.71a3.516 3.516 0 0 0 .724-2.137c0-.839-.292-1.628-.808-2.25.181-.172.332-.365.453-.57.553.237 1.065.14 1.73.012l.093-.018c.792-.15 1.396-.485 1.93-.78.665-.368 1.24-.685 2.153-.685 1.049 0 1.864.43 2.652.847.47.249.916.484 1.383.607.69.183 1.396.166 2.024-.036.038.075.08.152.124.227a3.524 3.524 0 0 0-.778 2.216c0 .794.265 1.525.706 2.114-.593 3.005-3.176 5.163-6.246 5.163Zm-10-9.824a2.074 2.074 0 0 1-.968-1.76A2.073 2.073 0 0 1 9.02 8.373a.71.71 0 0 0 .26.004.716.716 0 0 0 .928-.543c.647-3.299 3.58-5.431 7.474-5.431 3.5 0 6.457 2.157 7.397 5.401a.714.714 0 0 0 .963.589c.163-.041.331-.062.5-.062 1.138 0 2.063.933 2.063 2.08 0 .62-.272 1.203-.745 1.6a.72.72 0 0 0 0 1.107c.473.397.745.98.745 1.6 0 1.146-.925 2.08-2.062 2.08a2.073 2.073 0 0 1-2.062-2.08c0-.623.273-1.207.75-1.604a.724.724 0 0 0 0-1.108c-.117-.1-.35-.544-.488-.933a.715.715 0 0 0-1.061-.362c-.435.286-1.046.363-1.637.207-.31-.081-.667-.27-1.081-.49-.853-.45-1.914-1.01-3.314-1.01-1.279 0-2.108.458-2.84.862-.483.267-.94.519-1.509.627l-.094.019c-.906.173-.906.172-1.326-.253a.71.71 0 0 0-.763-.163.72.72 0 0 0-.456.64c-.012.303-.26.794-.77.935a.722.722 0 0 0-.19 1.304c.607.384.97 1.042.97 1.76 0 1.147-.925 2.08-2.062 2.08a2.073 2.073 0 0 1-2.062-2.08c0-.717.362-1.375.967-1.759a.722.722 0 0 0 0-1.22Z"/></svg>