<svg width="48" height="48" viewBox="0 0 48 48" fill="none" xmlns="http://www.w3.org/2000/svg">
<path fill-rule="evenodd" clip-rule="evenodd" d="M24 47.5514C10.7452 47.5514 0 36.9066 0 23.7757C0 10.6448 10.7452 0 24 0C37.2548 0 48 10.6448 48 23.7757C48 36.9066 37.2548 47.5514 24 47.5514ZM24.7911 37.0034C32.6595 37.0002 39.059 30.6591 39.0621 22.8658C39.0637 19.0882 37.5806 15.5362 34.8862 12.864C32.1918 10.1918 28.6086 8.71939 24.7909 8.71776C16.9248 8.71776 10.5228 15.0596 10.5196 22.8546C10.5186 25.3464 11.1757 27.7784 12.4246 29.9225L10.4 37.2486L17.9653 35.2826C20.0498 36.4089 22.3967 37.0026 24.7852 37.0034H24.7911Z" fill="white"/>
<path fill-rule="evenodd" clip-rule="evenodd" d="M18.3193 32.7186L13.8299 33.8853L15.0282 29.549L14.7462 29.1044C13.5588 27.2336 12.9317 25.0713 12.9326 22.8509C12.9352 16.372 18.2563 11.1011 24.7992 11.1011C27.9674 11.1022 30.9456 12.326 33.1851 14.5472C35.4246 16.7683 36.6572 19.7206 36.656 22.8604C36.6533 29.3398 31.3323 34.6113 24.7945 34.6113H24.7897C22.6612 34.6104 20.5736 34.0439 18.7524 32.9733L18.3193 32.7186ZM31.9842 26.2231C31.8951 26.0758 31.6574 25.9874 31.3008 25.8105C30.9442 25.6337 29.1911 24.7792 28.8642 24.6613C28.5374 24.5434 28.2995 24.4845 28.0619 24.838C27.8242 25.1916 27.1408 25.9874 26.9328 26.2231C26.7248 26.4589 26.5167 26.4884 26.1603 26.3116C25.8037 26.1347 24.6547 25.7618 23.2927 24.5582C22.2326 23.6215 21.5169 22.4648 21.3089 22.1111C21.1009 21.7574 21.2868 21.5662 21.4653 21.3901C21.6257 21.2318 21.8219 20.9774 22.0002 20.7712C22.1785 20.565 22.2379 20.4176 22.3567 20.182C22.4756 19.9461 22.4162 19.7399 22.327 19.563C22.2379 19.3862 21.5247 17.6474 21.2276 16.9401C20.9381 16.2513 20.6442 16.3446 20.4253 16.3337C20.2175 16.3234 19.9796 16.3212 19.7419 16.3212C19.5042 16.3212 19.1178 16.4096 18.791 16.7633C18.4641 17.1169 17.5429 17.9716 17.5429 19.7103C17.5429 21.4491 18.8207 23.1288 18.999 23.3646C19.1773 23.6004 21.5134 27.1684 25.0905 28.6986C25.9413 29.0625 26.6054 29.2799 27.1234 29.4426C27.9776 29.7116 28.755 29.6737 29.3693 29.5826C30.0545 29.4813 31.479 28.7282 31.7763 27.9031C32.0733 27.0778 32.0733 26.3704 31.9842 26.2231Z" fill="white"/>
</svg>
