<svg width="44" height="42" viewBox="0 0 44 42" fill="none" xmlns="http://www.w3.org/2000/svg">
<path d="M4.82068 32.2102C4.82068 34.8954 7.02875 37.0806 9.74327 37.0806C12.4578 37.0806 14.6659 34.8954 14.6659 32.2102C14.6659 29.525 12.4578 27.3398 9.74327 27.3398C7.02875 27.3398 4.82068 29.5245 4.82068 32.2102ZM13.0478 32.2102C13.0478 34.0128 11.5652 35.4798 9.74327 35.4798C7.92137 35.4798 6.43871 34.0128 6.43871 32.2102C6.43871 30.4077 7.92137 28.9407 9.74327 28.9407C11.5652 28.9407 13.0478 30.4077 13.0478 32.2102Z" fill="#FCFBF9"/>
<path d="M43.6562 14.022C43.3229 13.728 42.8121 13.7563 42.5138 14.0861L30.7632 27.1081L24.7139 21.123C24.3978 20.8103 23.886 20.8103 23.5699 21.123C23.2539 21.4357 23.2539 21.9421 23.5699 22.2548L30.2249 28.8387C30.377 28.9892 30.5825 29.0729 30.7971 29.0729C30.8047 29.0729 30.8122 29.0729 30.8198 29.0724C31.042 29.066 31.2523 28.9699 31.4007 28.8056L43.7214 15.1517C44.0186 14.8225 43.9895 14.3161 43.6562 14.022Z" fill="#FCFBF9"/>
<path d="M31.0738 31.0735C30.6266 31.0735 30.2647 31.4321 30.2647 31.874V39.8394H1.61803V2.48564H30.2647V19.2559C30.2647 19.6977 30.6266 20.0563 31.0738 20.0563C31.5209 20.0563 31.8828 19.6977 31.8828 19.2559V1.6852C31.8828 1.24336 31.5209 0.884766 31.0738 0.884766H0.809016C0.3619 0.884766 0 1.24336 0 1.6852V40.6398C0 41.0817 0.3619 41.4403 0.809016 41.4403H31.0738C31.5209 41.4403 31.8828 41.0817 31.8828 40.6398V31.874C31.8828 31.4321 31.5209 31.0735 31.0738 31.0735Z" fill="#FCFBF9"/>
<path d="M21.6185 11.6761C22.0656 11.6761 22.4275 11.3175 22.4275 10.8756C22.4275 10.4338 22.0656 10.0752 21.6185 10.0752H5.3648C4.91769 10.0752 4.55579 10.4338 4.55579 10.8756C4.55579 11.3175 4.91769 11.6761 5.3648 11.6761H21.6185Z" fill="#FCFBF9"/>
<path d="M22.6253 17.9943C22.6253 17.5524 22.2634 17.1938 21.8163 17.1938H5.56695C5.11983 17.1938 4.75793 17.5524 4.75793 17.9943C4.75793 18.4361 5.11983 18.7947 5.56695 18.7947H21.8163C22.2634 18.7947 22.6253 18.4361 22.6253 17.9943Z" fill="#FCFBF9"/>
</svg>
