<svg width="39" height="53" viewBox="0 0 39 53" fill="none" xmlns="http://www.w3.org/2000/svg">
<path d="M38.3652 9.41956C38.3634 9.38796 38.3604 9.35699 38.3563 9.32601C38.3516 9.29566 38.3463 9.26592 38.3392 9.2368C38.3321 9.20769 38.3238 9.17857 38.3138 9.15069C38.3038 9.12219 38.2932 9.09432 38.2802 9.06706C38.2678 9.04042 38.2548 9.01502 38.24 8.99024C38.2253 8.96422 38.2093 8.93944 38.1922 8.91528C38.1751 8.89174 38.1574 8.86881 38.1385 8.84713C38.1196 8.82545 38.1001 8.80438 38.0795 8.78456C38.0582 8.76411 38.0364 8.74491 38.0128 8.72694C37.9903 8.7096 37.9679 8.69287 37.9437 8.678C37.9189 8.6619 37.8935 8.64765 37.8675 8.63464C37.8416 8.62163 37.8156 8.60986 37.7884 8.59932C37.7613 8.58879 37.7341 8.58012 37.7058 8.57269C37.6769 8.56463 37.6474 8.55844 37.6173 8.55348C37.6019 8.551 37.5877 8.54543 37.5724 8.54419C30.5383 7.80573 25.0372 6.30465 19.355 1.11312C18.986 0.776105 18.4258 0.816992 18.1059 1.20357C18.0852 1.22835 18.0699 1.25623 18.0522 1.28287C12.338 6.45705 7.56595 7.83422 0.797503 8.54357C0.344739 8.59127 0 8.99086 0 9.4685V31.2326C0 31.315 0.0106252 31.3968 0.0312859 31.4761C3.62212 45.3743 18.1041 51.9771 18.7186 52.2515C18.8296 52.3011 18.9476 52.3258 19.0651 52.3258C19.1814 52.3258 19.2989 52.3017 19.4081 52.2534C20.0303 51.9795 34.6781 45.3774 38.269 31.4767C38.2813 31.4278 38.2908 31.3782 38.2955 31.3274L38.3652 30.6082C38.3681 30.5772 38.3699 30.5456 38.3699 30.514V9.46912C38.3699 9.45115 38.3663 9.43567 38.3652 9.41956ZM36.5411 31.061C33.442 42.8931 21.2805 49.2964 19.0669 50.375C16.8727 49.2933 4.88773 42.9043 1.77033 31.1063V10.3042C8.18637 9.55895 13.1626 8.01574 18.8024 3.04724C24.3914 7.91228 30.0135 9.53603 36.5984 10.3011V30.4657L36.5411 31.061Z" fill="#FCFBF9"/>
<path d="M27.451 20.9275H26.6009C26.1334 16.812 22.7645 13.6079 18.6855 13.6079C14.6065 13.6079 11.2376 16.812 10.7707 20.9275H9.74239C9.25362 20.9275 8.85693 21.3432 8.85693 21.8567V35.486C8.85693 35.9996 9.25362 36.4153 9.74239 36.4153H27.4516C27.9403 36.4153 28.337 35.9996 28.337 35.486V21.8567C28.3364 21.3432 27.9398 20.9275 27.451 20.9275ZM18.6849 15.4665C21.7852 15.4665 24.3542 17.8404 24.8105 20.9275H12.5593C13.0162 17.8404 15.5847 15.4665 18.6849 15.4665ZM26.5655 22.786V34.5568H10.6273V22.786H26.5655Z" fill="#FCFBF9"/>
</svg>
